{
  "accessors": [
    {
      "bufferView": 2,
      "componentType": 5126,
      "count": 2433,
      "max": [
        0.9912201166152954,
        0.9978479743003845,
        0.9944148063659668
      ],
      "min": [
        -0.9912201166152954,
        -1.0000009536743164,
        -0.9912201166152954
      ],
      "type": "VEC3"
    },
    {
      "bufferView": 2,
      "byteOffset": 29196,
      "componentType": 5126,
      "count": 2433,
      "max": [
        0.9997820854187012,
        0.839566707611084,
        0.9997808933258057
      ],
      "min": [
        -0.9997820854187012,
        -1.0,
        -0.9997820854187012
      ],
      "type": "VEC3"
    },
    {
      "bufferView": 1,
      "componentType": 5126,
      "count": 2433,
      "max": [
        1.0000001192092896,
        0.9996726512908936
      ],
      "min": [
        0.0,
        0.012733029201626778
      ],
      "type": "VEC2"
    },
    {
      "bufferView": 0,
      "componentType": 5125,
      "count": 9924,
      "type": "SCALAR"
    },
    {
      "bufferView": 2,
      "byteOffset": 58392,
      "componentType": 5126,
      "count": 3221,
      "max": [
        0.9903305768966675,
        1.0029832124710083,
        0.9935226440429688
      ],
      "min": [
        -0.9903305768966675,
        -0.9303706884384155,
        -0.9903305768966675
      ],
      "type": "VEC3"
    },
    {
      "bufferView": 2,
      "byteOffset": 97044,
      "componentType": 5126,
      "count": 3221,
      "max": [
        0.997654378414154,
        1.0,
        0.997654378414154
      ],
      "min": [
        -0.997654378414154,
        0.06845328211784363,
        -0.9976375102996826
      ],
      "type": "VEC3"
    },
    {
      "bufferView": 1,
      "byteOffset": 19464,
      "componentType": 5126,
      "count": 3221,
      "max": [
        1.000023603439331,
        1.0000001192092896
      ],
      "min": [
        -2.3457303541363217e-05,
        0.012733029201626778
      ],
      "type": "VEC2"
    },
    {
      "bufferView": 0,
      "byteOffset": 39696,
      "componentType": 5125,
      "count": 11604,
      "type": "SCALAR"
    },
    {
      "bufferView": 2,
      "byteOffset": 135696,
      "componentType": 5126,
      "count": 6294,
      "max": [
        0.09058781713247299,
        0.8575977683067322,
        1.6969784498214722
      ],
      "min": [
        -0.09058841317892075,
        -0.7228316068649292,
        0.8124066591262817
      ],
      "type": "VEC3"
    },
    {
      "bufferView": 2,
      "byteOffset": 211224,
      "componentType": 5126,
      "count": 6294,
      "max": [
        0.9999856948852539,
        0.9996563196182251,
        0.9996140003204346
      ],
      "min": [
        -0.9999856948852539,
        -0.9999228715896606,
        -0.9996261596679688
      ],
      "type": "VEC3"
    },
    {
      "bufferView": 1,
      "byteOffset": 45232,
      "componentType": 5126,
      "count": 6294,
      "max": [
        0.5156251192092896,
        0.9224452376365662
      ],
      "min": [
        0.0,
        0.0
      ],
      "type": "VEC2"
    },
    {
      "bufferView": 0,
      "byteOffset": 86112,
      "componentType": 5125,
      "count": 20736,
      "type": "SCALAR"
    },
    {
      "bufferView": 2,
      "byteOffset": 286752,
      "componentType": 5126,
      "count": 3092,
      "max": [
        0.9086474776268005,
        0.8120355010032654,
        0.910940408706665
      ],
      "min": [
        -0.9086474180221558,
        -0.9303706884384155,
        -0.909283459186554
      ],
      "type": "VEC3"
    },
    {
      "bufferView": 2,
      "byteOffset": 323856,
      "componentType": 5126,
      "count": 3092,
      "max": [
        0.9976333379745483,
        1.0,
        0.9975804090499878
      ],
      "min": [
        -0.9976333379745483,
        -1.0,
        -0.9976688623428345
      ],
      "type": "VEC3"
    },
    {
      "bufferView": 1,
      "byteOffset": 95584,
      "componentType": 5126,
      "count": 3092,
      "max": [
        1.0000001192092896,
        0.8864680528640747
      ],
      "min": [
        0.0,
        0.012733029201626778
      ],
      "type": "VEC2"
    },
    {
      "bufferView": 0,
      "byteOffset": 169056,
      "componentType": 5125,
      "count": 9384,
      "type": "SCALAR"
    },
    {
      "bufferView": 2,
      "byteOffset": 360960,
      "componentType": 5126,
      "count": 4,
      "max": [
        1.0,
        0.0,
        1.0
      ],
      "min": [
        -1.0,
        0.0,
        -1.0
      ],
      "type": "VEC3"
    },
    {
      "bufferView": 2,
      "byteOffset": 361008,
      "componentType": 5126,
      "count": 4,
      "max": [
        0.0,
        1.0,
        -0.0
      ],
      "min": [
        0.0,
        1.0,
        -0.0
      ],
      "type": "VEC3"
    },
    {
      "bufferView": 1,
      "byteOffset": 120320,
      "componentType": 5126,
      "count": 4,
      "max": [
        1.0,
        1.0
      ],
      "min": [
        0.0,
        0.0
      ],
      "type": "VEC2"
    },
    {
      "bufferView": 0,
      "byteOffset": 206592,
      "componentType": 5125,
      "count": 6,
      "type": "SCALAR"
    }
  ],
  "asset": {
    "extras": {
      "author": "The Exceptionist (https://sketchfab.com/rajj91783)",
      "license": "CC-BY-4.0 (http://creativecommons.org/licenses/by/4.0/)",
      "source": "https://sketchfab.com/3d-models/coffee-cup-13127e9eb24e431fac971f9be2d0a54f",
      "title": "Coffee Cup"
    },
    "generator": "Sketchfab-12.67.0",
    "version": "2.0"
  },
  "bufferViews": [
    {
      "buffer": 0,
      "byteLength": 206616,
      "name": "floatBufferViews",
      "target": 34963
    },
    {
      "buffer": 0,
      "byteLength": 120352,
      "byteOffset": 206616,
      "byteStride": 8,
      "name": "floatBufferViews",
      "target": 34962
    },
    {
      "buffer": 0,
      "byteLength": 361056,
      "byteOffset": 326968,
      "byteStride": 12,
      "name": "floatBufferViews",
      "target": 34962
    }
  ],
  "buffers": [
    {
      "byteLength": 688024,
      "uri": "scene.bin"
    }
  ],
  "materials": [
    {
      "doubleSided": true,
      "name": "Material.001",
      "pbrMetallicRoughness": {
        "baseColorFactor": [
          0.00539613,
          0.726867,
          0.8,
          1.0
        ],
        "metallicFactor": 0.0,
        "roughnessFactor": 0.4
      }
    },
    {
      "doubleSided": true,
      "name": "Material.002",
      "pbrMetallicRoughness": {
        "baseColorFactor": [
          0.8,
          0.8,
          0.8,
          1.0
        ],
        "metallicFactor": 0.0,
        "roughnessFactor": 0.5
      }
    },
    {
      "alphaMode": "BLEND",
      "doubleSided": true,
      "name": "Material",
      "pbrMetallicRoughness": {
        "baseColorFactor": [
          0.016068,
          0.004044999999999998,
          0.003507,
          0.9802874162349751
        ],
        "metallicFactor": 0.0,
        "roughnessFactor": 0.0
      }
    },
    {
      "doubleSided": true,
      "name": "Material.003",
      "pbrMetallicRoughness": {
        "baseColorFactor": [
          0.239317,
          0.239317,
          0.239317,
          1.0
        ],
        "metallicFactor": 0.0,
        "roughnessFactor": 0.129091
      }
    }
  ],
  "meshes": [
    {
      "name": "Object_0",
      "primitives": [
        {
          "attributes": {
            "NORMAL": 1,
            "POSITION": 0,
            "TEXCOORD_0": 2
          },
          "indices": 3,
          "material": 0,
          "mode": 4
        }
      ]
    },
    {
      "name": "Object_1",
      "primitives": [
        {
          "attributes": {
            "NORMAL": 5,
            "POSITION": 4,
            "TEXCOORD_0": 6
          },
          "indices": 7,
          "material": 1,
          "mode": 4
        }
      ]
    },
    {
      "name": "Object_2",
      "primitives": [
        {
          "attributes": {
            "NORMAL": 9,
            "POSITION": 8,
            "TEXCOORD_0": 10
          },
          "indices": 11,
          "material": 0,
          "mode": 4
        }
      ]
    },
    {
      "name": "Object_3",
      "primitives": [
        {
          "attributes": {
            "NORMAL": 13,
            "POSITION": 12,
            "TEXCOORD_0": 14
          },
          "indices": 15,
          "material": 2,
          "mode": 4
        }
      ]
    },
    {
      "name": "Object_4",
      "primitives": [
        {
          "attributes": {
            "NORMAL": 17,
            "POSITION": 16,
            "TEXCOORD_0": 18
          },
          "indices": 19,
          "material": 3,
          "mode": 4
        }
      ]
    }
  ],
  "nodes": [
    {
      "children": [
        1
      ],
      "matrix": [
        1.0,
        0.0,
        0.0,
        0.0,
        0.0,
        2.220446049250313e-16,
        -1.0,
        0.0,
        0.0,
        1.0,
        2.220446049250313e-16,
        0.0,
        0.0,
        0.0,
        0.0,
        1.0
      ],
      "name": "Sketchfab_model"
    },
    {
      "children": [
        2
      ],
      "name": "root"
    },
    {
      "children": [
        3,
        10
      ],
      "matrix": [
        1.0,
        0.0,
        0.0,
        0.0,
        0.0,
        2.220446049250313e-16,
        1.0,
        0.0,
        0.0,
        -1.0,
        2.220446049250313e-16,
        0.0,
        0.0,
        0.0,
        0.0,
        1.0
      ],
      "name": "GLTF_SceneRootNode"
    },
    {
      "children": [
        4,
        5,
        6,
        8
      ],
      "matrix": [
        0.0959240198135376,
        0.0,
        0.0,
        0.0,
        0.0,
        0.0959240198135376,
        0.0,
        0.0,
        0.0,
        0.0,
        0.0959240198135376,
        0.0,
        0.0,
        0.0,
        0.0,
        1.0
      ],
      "name": "Cylinder_2"
    },
    {
      "mesh": 0,
      "name": "Object_4"
    },
    {
      "mesh": 1,
      "name": "Object_5"
    },
    {
      "children": [
        7
      ],
      "name": "Cylinder.001_0"
    },
    {
      "mesh": 2,
      "name": "Object_7"
    },
    {
      "children": [
        9
      ],
      "matrix": [
        1.012836217880249,
        0.0,
        0.0,
        0.0,
        0.0,
        1.012836217880249,
        0.0,
        0.0,
        0.0,
        0.0,
        1.012836217880249,
        0.0,
        0.0,
        0.0,
        0.0,
        1.0
      ],
      "name": "Cylinder.002_1"
    },
    {
      "mesh": 3,
      "name": "Object_9"
    },
    {
      "children": [
        11
      ],
      "matrix": [
        1.883148193359375,
        0.0,
        0.0,
        0.0,
        0.0,
        1.883148193359375,
        0.0,
        0.0,
        0.0,
        0.0,
        1.883148193359375,
        0.0,
        0.0,
        -0.09596171230077744,
        0.0,
        1.0
      ],
      "name": "Plane_5"
    },
    {
      "mesh": 4,
      "name": "Object_11"
    }
  ],
  "scene": 0,
  "scenes": [
    {
      "name": "Sketchfab_Scene",
      "nodes": [
        0
      ]
    }
  ]
}
